{
  "accessors": [
    {
      "bufferView": 2,
      "componentType": 5126,
      "count": 1018,
      "max": [
        0.8004975914955139,
        0.7807943224906921,
        0.8004977703094482
      ],
      "min": [
        -0.8004976511001587,
        -0.7807943224906921,
        -0.8004977703094482
      ],
      "type": "VEC3"
    },
    {
      "bufferView": 2,
      "byteOffset": 12216,
      "componentType": 5126,
      "count": 1018,
      "max": [
        1.0,
        1.0,
        1.0
      ],
      "min": [
        -1.0,
        -1.0,
        -1.0
      ],
      "type": "VEC3"
    },
    {
      "bufferView": 1,
      "componentType": 5126,
      "count": 1018,
      "max": [
        0.8750003576278687,
        0.6222639083862305
      ],
      "min": [
        0.5000000596046448,
        0.1287318915128708
      ],
      "type": "VEC2"
    },
    {
      "bufferView": 0,
      "componentType": 5125,
      "count": 3408,
      "type": "SCALAR"
    },
    {
      "bufferView": 2,
      "byteOffset": 24432,
      "componentType": 5126,
      "count": 4036,
      "max": [
        0.8013952970504761,
        0.7801476716995239,
        0.8013954162597656
      ],
      "min": [
        -0.8013952970504761,
        -0.7801476716995239,
        -0.8013954162597656
      ],
      "type": "VEC3"
    },
    {
      "bufferView": 2,
      "byteOffset": 72864,
      "componentType": 5126,
      "count": 4036,
      "max": [
        0.9989815950393677,
        0.9992357492446899,
        0.9989811778068542
      ],
      "min": [
        -0.9989816546440125,
        -0.9992356300354004,
        -0.9989811182022095
      ],
      "type": "VEC3"
    },
    {
      "bufferView": 1,
      "byteOffset": 8144,
      "componentType": 5126,
      "count": 4036,
      "max": [
        0.8750004172325134,
        0.6222638487815857
      ],
      "min": [
        0.5000000596046448,
        0.1287318915128708
      ],
      "type": "VEC2"
    },
    {
      "bufferView": 0,
      "byteOffset": 13632,
      "componentType": 5125,
      "count": 16704,
      "type": "SCALAR"
    }
  ],
  "asset": {
    "extras": {
      "author": "Alihan (https://sketchfab.com/Dare0)",
      "license": "CC-BY-4.0 (http://creativecommons.org/licenses/by/4.0/)",
      "source": "https://sketchfab.com/3d-models/basketball-4b5ae9b70251441a896a90fd14a79f66",
      "title": "Basketball"
    },
    "generator": "Sketchfab-12.54.0",
    "version": "2.0"
  },
  "bufferViews": [
    {
      "buffer": 0,
      "byteLength": 80448,
      "name": "floatBufferViews",
      "target": 34963
    },
    {
      "buffer": 0,
      "byteLength": 40432,
      "byteOffset": 80448,
      "byteStride": 8,
      "name": "floatBufferViews",
      "target": 34962
    },
    {
      "buffer": 0,
      "byteLength": 121296,
      "byteOffset": 120880,
      "byteStride": 12,
      "name": "floatBufferViews",
      "target": 34962
    }
  ],
  "buffers": [
    {
      "byteLength": 242176,
      "uri": "scene.bin"
    }
  ],
  "materials": [
    {
      "doubleSided": true,
      "name": "Material.003",
      "pbrMetallicRoughness": {
        "baseColorFactor": [
          0.0,
          0.0,
          0.0,
          1.0
        ],
        "metallicFactor": 0.0
      }
    },
    {
      "doubleSided": true,
      "name": "Material.004",
      "pbrMetallicRoughness": {
        "baseColorFactor": [
          1.0,
          0.204387,
          0.0162911,
          1.0
        ],
        "metallicFactor": 0.0,
        "roughnessFactor": 0.7915640637445355
      }
    }
  ],
  "meshes": [
    {
      "name": "Baskatball_Material.003_0",
      "primitives": [
        {
          "attributes": {
            "NORMAL": 1,
            "POSITION": 0,
            "TEXCOORD_0": 2
          },
          "indices": 3,
          "material": 0,
          "mode": 4
        }
      ]
    },
    {
      "name": "Baskatball_Material.004_0",
      "primitives": [
        {
          "attributes": {
            "NORMAL": 5,
            "POSITION": 4,
            "TEXCOORD_0": 6
          },
          "indices": 7,
          "material": 1,
          "mode": 4
        }
      ]
    }
  ],
  "nodes": [
    {
      "children": [
        1
      ],
      "matrix": [
        1.0,
        0.0,
        0.0,
        0.0,
        0.0,
        2.220446049250313e-16,
        -1.0,
        0.0,
        0.0,
        1.0,
        2.220446049250313e-16,
        0.0,
        0.0,
        0.0,
        0.0,
        1.0
      ],
      "name": "Sketchfab_model"
    },
    {
      "children": [
        2
      ],
      "matrix": [
        1.0,
        0.0,
        0.0,
        0.0,
        0.0,
        0.0,
        1.0,
        0.0,
        0.0,
        -1.0,
        0.0,
        0.0,
        0.0,
        0.0,
        0.0,
        1.0
      ],
      "name": "27b603e451854666826dd3d969779366.fbx"
    },
    {
      "children": [
        3
      ],
      "name": "RootNode"
    },
    {
      "children": [
        4,
        5
      ],
      "name": "Baskatball"
    },
    {
      "mesh": 0,
      "name": "Baskatball_Material.003_0"
    },
    {
      "mesh": 1,
      "name": "Baskatball_Material.004_0"
    }
  ],
  "scene": 0,
  "scenes": [
    {
      "name": "Sketchfab_Scene",
      "nodes": [
        0
      ]
    }
  ]
}
